HIERARCHY
ROOT Hips
{
	OFFSET 0.000000 0.000000 0.000000
	CHANNELS 6 Xposition Yposition Zposition Zrotation Yrotation Xrotation 
	JOINT LHipJoint
	{
		OFFSET 0.000000 0.000000 0.000000
		CHANNELS 3 Zrotation Yrotation Xrotation
		JOINT LeftUpLeg
		{
			OFFSET 1.363060 -1.794630 0.839290
			CHANNELS 3 Zrotation Yrotation Xrotation
			JOINT LeftLeg
			{
				OFFSET 2.448110 -6.726130 0.000000
				CHANNELS 3 Zrotation Yrotation Xrotation
				JOINT LeftFoot
				{
					OFFSET 2.562200 -7.039590 0.000000
					CHANNELS 3 Zrotation Yrotation Xrotation
					JOINT LeftToeBase
					{
						OFFSET 0.157640 -0.433110 2.322550
						CHANNELS 3 Zrotation Yrotation Xrotation
						End Site
						{
							OFFSET 0.000000 0.000000 0.000000
						}
					}
				}
			}
		}
	}
	JOINT RHipJoint
	{
		OFFSET 0.000000 0.000000 0.000000
		CHANNELS 3 Zrotation Yrotation Xrotation
		JOINT RightUpLeg
		{
			OFFSET -1.305520 -1.794630 0.839290
			CHANNELS 3 Zrotation Yrotation Xrotation
			JOINT RightLeg
			{
				OFFSET -2.542530 -6.985550 0.000000
				CHANNELS 3 Zrotation Yrotation Xrotation
				JOINT RightFoot
				{
					OFFSET -2.568260 -7.056230 0.000000
					CHANNELS 3 Zrotation Yrotation Xrotation
					JOINT RightToeBase
					{
						OFFSET -0.164730 -0.452590 2.363150
						CHANNELS 3 Zrotation Yrotation Xrotation
						End Site
						{
							OFFSET 0.000000 0.000000 0.000000
						}
					}
				}
			}
		}
	}
	JOINT LowerBack
	{
		OFFSET 0.000000 0.000000 0.000000
		CHANNELS 3 Zrotation Yrotation Xrotation
		JOINT Spine
		{
			OFFSET 0.028270 2.035590 -0.193380
			CHANNELS 3 Zrotation Yrotation Xrotation
			JOINT Spine1
			{
				OFFSET 0.056720 2.048850 -0.042750
				CHANNELS 3 Zrotation Yrotation Xrotation
				JOINT Neck
				{
					OFFSET 0.000000 0.000000 0.000000
					CHANNELS 3 Zrotation Yrotation Xrotation
					JOINT Neck1
					{
						OFFSET -0.054170 1.746240 0.172020
						CHANNELS 3 Zrotation Yrotation Xrotation
						JOINT Head
						{
							OFFSET 0.104070 1.761360 -0.123970
							CHANNELS 3 Zrotation Yrotation Xrotation
							End Site
							{
								OFFSET 0.000000 0.000000 0.000000
							}
						}
					}
				}
				JOINT LeftShoulder
				{
					OFFSET 0.000000 0.000000 0.000000
					CHANNELS 3 Zrotation Yrotation Xrotation
					JOINT LeftArm
					{
						OFFSET 3.362410 1.200890 -0.311210
						CHANNELS 3 Zrotation Yrotation Xrotation
						JOINT LeftForeArm
						{
							OFFSET 4.983000 -0.000000 -0.000000
							CHANNELS 3 Zrotation Yrotation Xrotation
							JOINT LeftHand
							{
								OFFSET 3.483560 -0.000000 -0.000000
								CHANNELS 3 Zrotation Yrotation Xrotation
								JOINT LeftFingerBase
								{
									OFFSET 0.000000 0.000000 0.000000
									CHANNELS 3 Zrotation Yrotation Xrotation
									JOINT LeftHandIndex1
									{
										OFFSET 0.715260 -0.000000 -0.000000
										CHANNELS 3 Zrotation Yrotation Xrotation
										End Site
										{
											OFFSET 0.000000 0.000000 0.000000
										}
									}
								}
								JOINT LThumb
								{
									OFFSET 0.000000 0.000000 0.000000
									CHANNELS 3 Zrotation Yrotation Xrotation
									End Site
									{
										OFFSET 0.000000 0.000000 0.000000
									}
								}
							}
						}
					}
				}
				JOINT RightShoulder
				{
					OFFSET 0.000000 0.000000 0.000000
					CHANNELS 3 Zrotation Yrotation Xrotation
					JOINT RightArm
					{
						OFFSET -3.136600 1.374050 -0.404650
						CHANNELS 3 Zrotation Yrotation Xrotation
						JOINT RightForeArm
						{
							OFFSET -5.241900 -0.000000 -0.000000
							CHANNELS 3 Zrotation Yrotation Xrotation
							JOINT RightHand
							{
								OFFSET -3.444170 -0.000000 -0.000000
								CHANNELS 3 Zrotation Yrotation Xrotation
								JOINT RightFingerBase
								{
									OFFSET 0.000000 0.000000 0.000000
									CHANNELS 3 Zrotation Yrotation Xrotation
									JOINT RightHandIndex1
									{
										OFFSET -0.622530 -0.000000 -0.000000
										CHANNELS 3 Zrotation Yrotation Xrotation
										End Site
										{
											OFFSET 0.000000 0.000000 0.000000
										}
									}
								}
								JOINT RThumb
								{
									OFFSET 0.000000 0.000000 0.000000
									CHANNELS 3 Zrotation Yrotation Xrotation
									End Site
									{
										OFFSET 0.000000 0.000000 0.000000
									}
								}
							}
						}
					}
				}
			}
		}
	}
}
MOTION
Frames: 5
Frame Time: 0.008333
0.044216 18.364040 8.649642 -12.155532 5.131877 11.652407 7.693690 4.696337 -1.673800 -13.741785 -41.738145 14.721437 -3.613224 -2.276926 -2.948379 -15.332993 44.372290 -22.621659 0.152100 2.513400 6.926700 1.074575 -4.573317 0.609708 23.708089 25.974918 0.124765 3.554472 -1.362471 4.280167 8.236274 -25.890557 -4.595598 -0.041300 1.312200 -3.608300 -6.055263 2.118533 6.411483 32.507379 7.706795 -19.250041 -13.345619 -1.885112 -10.715333 -22.632097 -13.087363 -4.377763 15.903394 -19.988515 19.366762 3.168700 -9.039800 6.592000 -10.703678 -6.345744 0.825497 -88.595506 13.121642 14.242596 10.380442 -11.586902 -1.709388 0.299117 1.830159 30.962580 15.401066 -11.614230 -3.813100 -7.125000 0.000000 0.000000 -7.738900 16.183700 5.324600 9.660783 7.355578 1.444700 78.256814 -12.682507 7.780563 -12.995450 17.828852 -2.661344 0.931035 1.743988 40.042571 10.679918 -31.691808 -6.193600 7.125000 0.000000 0.000000 47.271700 -57.067200 -16.436200 
0.045374 18.364882 8.648378 -12.159089 5.155687 11.679725 7.682522 4.690338 -1.685666 -13.750334 -41.838048 14.742408 -3.614302 -2.264131 -2.921650 -15.352355 44.424865 -22.780919 0.141200 2.421300 6.671500 1.065228 -4.567992 0.598880 23.700206 25.921655 0.076564 3.554574 -1.366389 4.287374 8.232320 -25.879611 -4.604475 -0.036300 1.230000 -3.382000 -5.994954 2.119195 6.453894 32.403260 7.721841 -19.371220 -13.339901 -1.880353 -10.707496 -22.657109 -13.095645 -4.394432 15.954768 -20.014574 19.482539 3.177600 -9.043300 6.624100 -10.689974 -6.336363 0.837485 -88.558563 13.213697 14.277510 10.391681 -11.610080 -1.716589 0.313579 1.836532 31.007482 15.381174 -11.750419 -3.847800 -7.125000 0.000000 0.000000 -7.758700 16.033400 5.364000 9.684452 7.358536 1.457410 78.291739 -12.596202 7.572936 -12.947895 17.760340 -2.645550 0.923702 1.758127 40.235824 11.099850 -31.571942 -6.425000 7.125000 0.000000 0.000000 47.538900 -56.888100 -16.342600 
0.045900 18.365829 8.648378 -12.122570 5.154104 11.696916 7.670521 4.686619 -1.695339 -13.814817 -41.904127 14.787845 -3.616559 -2.259162 -2.912318 -15.362971 44.462157 -22.900900 0.140900 2.419000 6.665100 1.053979 -4.565485 0.587370 23.663039 25.907622 0.058111 3.553967 -1.368444 4.287419 8.234662 -25.886485 -4.569310 -0.036900 1.240500 -3.410800 -5.977415 2.120328 6.510724 32.282516 7.728549 -19.481668 -13.309636 -1.872767 -10.714533 -22.657595 -13.117861 -4.449501 15.958667 -20.046454 19.627865 3.171700 -9.050600 6.661600 -10.680570 -6.321580 0.848971 -88.524261 13.280102 14.279110 10.393830 -11.616754 -1.716558 0.319419 1.829503 31.104599 15.327733 -11.729478 -3.825900 -7.125000 0.000000 0.000000 -7.799200 16.064000 5.387300 9.709334 7.358590 1.468219 78.311634 -12.586478 7.557793 -12.947263 17.758345 -2.645663 0.919970 1.764631 40.283006 11.249182 -31.545715 -6.510500 7.125000 0.000000 0.000000 47.652000 -56.836300 -16.331700 
0.046111 18.366461 8.648273 -12.113650 5.150294 11.712439 7.663647 4.680700 -1.701583 -13.773321 -41.836428 14.720738 -3.613618 -2.256415 -2.913412 -15.357713 44.439066 -22.775924 0.140100 2.412500 6.647200 1.045237 -4.565313 0.577023 23.666888 25.938751 0.062843 3.553411 -1.371970 4.295053 8.233568 -25.883841 -4.573632 -0.035300 1.212800 -3.334600 -5.946877 2.127153 6.566681 32.199970 7.740245 -19.572275 -13.294559 -1.868978 -10.733566 -22.709171 -13.131262 -4.502775 16.031302 -20.071958 19.745874 3.186900 -9.052700 6.700800 -10.667590 -6.307254 0.858400 -88.486488 13.334766 14.441033 10.398136 -11.624006 -1.714888 0.299392 1.817861 30.987163 15.345236 -11.574174 -3.783600 -7.125000 0.000000 0.000000 -7.781000 16.241000 5.344400 9.727384 7.360077 1.477591 78.315632 -12.604133 7.699175 -12.959872 17.772726 -2.646816 0.922973 1.751185 40.142392 10.896141 -31.521589 -6.296300 7.125000 0.000000 0.000000 47.296600 -56.893900 -16.237500 
0.044005 18.369724 8.658906 -11.976785 5.169562 11.863513 7.648668 4.687537 -1.725089 -13.879558 -41.921541 14.662274 -3.611154 -2.254716 -2.943515 -15.391576 44.511697 -22.732360 0.136100 2.377800 6.551000 1.039399 -4.541168 0.541899 23.497594 25.985321 0.050165 3.562727 -1.329836 4.181376 8.270895 -25.969294 -4.630625 -0.007300 0.551300 -1.514800 -6.076091 2.067256 6.379727 32.017376 7.737470 -19.815518 -13.180357 -1.852420 -10.504605 -22.740776 -13.129668 -4.418287 16.142901 -20.100671 19.742300 3.208700 -9.058800 6.708200 -10.657608 -6.329494 0.873760 -88.453450 13.412737 14.789707 10.431531 -11.651693 -1.716564 0.250556 1.793127 30.671636 15.422669 -11.200428 -3.690700 -7.125000 0.000000 0.000000 -7.712200 16.660900 5.225300 9.770219 7.361237 1.490479 78.238782 -12.605148 8.096797 -12.901030 17.693116 -2.625980 0.929329 1.738232 39.676215 10.432488 -31.510521 -6.016000 7.125000 0.000000 0.000000 46.851200 -56.992100 -16.150600 
